<svg width="23" height="22" viewBox="0 0 23 22" fill="none" xmlns="http://www.w3.org/2000/svg">
<path d="M7.6492 21.3843C8.48314 21.3843 9.15918 20.7005 9.15918 19.8569C9.15918 19.0133 8.48314 18.3295 7.6492 18.3295C6.81526 18.3295 6.13922 19.0133 6.13922 19.8569C6.13922 20.7005 6.81526 21.3843 7.6492 21.3843Z" fill="#FFFCFC"/>
<path d="M18.219 21.3843C19.0529 21.3843 19.729 20.7005 19.729 19.8569C19.729 19.0133 19.0529 18.3295 18.219 18.3295C17.385 18.3295 16.709 19.0133 16.709 19.8569C16.709 20.7005 17.385 21.3843 18.219 21.3843Z" fill="#FFFCFC"/>
<path d="M21.239 3.81876H4.49324L3.87415 0.611132C3.83885 0.436029 3.74397 0.278992 3.60602 0.167355C3.46807 0.0557184 3.29578 -0.00344781 3.11915 0.000155371H0.0991821V1.5276H2.50006L5.38413 16.191C5.41943 16.3661 5.51431 16.5232 5.65226 16.6348C5.79021 16.7465 5.9625 16.8056 6.13912 16.802H19.729V15.2746H6.75822L6.13912 12.2197H19.729C19.9035 12.224 20.0741 12.167 20.2118 12.0584C20.3494 11.9498 20.4456 11.7963 20.484 11.624L21.994 4.7505C22.0193 4.63718 22.0187 4.51952 21.9922 4.40647C21.9658 4.29341 21.9142 4.18795 21.8414 4.09811C21.7686 4.00826 21.6765 3.9364 21.5721 3.88799C21.4677 3.83958 21.3538 3.81591 21.239 3.81876ZM19.125 10.6922H5.85223L4.79524 5.3462H20.2952L19.125 10.6922Z" fill="#FFFCFC"/>
</svg>
