<svg width="33" height="31" viewBox="0 0 33 31" fill="none" xmlns="http://www.w3.org/2000/svg">
<path d="M33 15.5L29.34 11.3814L29.85 5.93429L24.435 4.72381L21.6 0L16.5 2.15524L11.4 0L8.565 4.70905L3.15 5.90476L3.66 11.3667L0 15.5L3.66 19.6186L3.15 25.0805L8.565 26.291L11.4 31L16.5 28.83L21.6 30.9852L24.435 26.2762L29.85 25.0657L29.34 19.6186L33 15.5ZM12.57 21.4195L9 17.8767C8.86094 17.7401 8.75062 17.5779 8.67535 17.3993C8.60008 17.2207 8.56133 17.0293 8.56133 16.836C8.56133 16.6426 8.60008 16.4512 8.67535 16.2726C8.75062 16.094 8.86094 15.9318 9 15.7952L9.105 15.6919C9.69 15.1162 10.65 15.1162 11.235 15.6919L13.65 18.0833L21.375 10.4662C21.96 9.89048 22.92 9.89048 23.505 10.4662L23.61 10.5695C24.195 11.1452 24.195 12.0752 23.61 12.651L14.73 21.4195C14.115 21.9952 13.17 21.9952 12.57 21.4195Z" fill="#35AD33"/>
</svg>
