<svg width="21" height="24" viewBox="0 0 21 24" fill="none" xmlns="http://www.w3.org/2000/svg">
<path d="M6.4615 8.79999C6.67571 8.79999 6.88115 8.88427 7.03263 9.0343C7.1841 9.18433 7.26919 9.38781 7.26919 9.59999V19.2C7.26919 19.4122 7.1841 19.6156 7.03263 19.7657C6.88115 19.9157 6.67571 20 6.4615 20C6.24729 20 6.04185 19.9157 5.89038 19.7657C5.7389 19.6156 5.65381 19.4122 5.65381 19.2V9.59999C5.65381 9.38781 5.7389 9.18433 5.89038 9.0343C6.04185 8.88427 6.24729 8.79999 6.4615 8.79999ZM10.5 8.79999C10.7142 8.79999 10.9196 8.88427 11.0711 9.0343C11.2226 9.18433 11.3077 9.38781 11.3077 9.59999V19.2C11.3077 19.4122 11.2226 19.6156 11.0711 19.7657C10.9196 19.9157 10.7142 20 10.5 20C10.2858 20 10.0803 19.9157 9.92884 19.7657C9.77737 19.6156 9.69227 19.4122 9.69227 19.2V9.59999C9.69227 9.38781 9.77737 9.18433 9.92884 9.0343C10.0803 8.88427 10.2858 8.79999 10.5 8.79999ZM15.3461 9.59999C15.3461 9.38781 15.261 9.18433 15.1096 9.0343C14.9581 8.88427 14.7526 8.79999 14.5384 8.79999C14.3242 8.79999 14.1188 8.88427 13.9673 9.0343C13.8158 9.18433 13.7307 9.38781 13.7307 9.59999V19.2C13.7307 19.4122 13.8158 19.6156 13.9673 19.7657C14.1188 19.9157 14.3242 20 14.5384 20C14.7526 20 14.9581 19.9157 15.1096 19.7657C15.261 19.6156 15.3461 19.4122 15.3461 19.2V9.59999Z" fill="#EE3037"/>
<path fill-rule="evenodd" clip-rule="evenodd" d="M21 4.8C21 5.22435 20.8298 5.63131 20.5269 5.93137C20.2239 6.23143 19.813 6.4 19.3846 6.4H18.5769V20.8C18.5769 21.6487 18.2365 22.4626 17.6307 23.0627C17.0248 23.6629 16.203 24 15.3462 24H5.65385C4.79699 24 3.97523 23.6629 3.36935 23.0627C2.76346 22.4626 2.42308 21.6487 2.42308 20.8V6.4H1.61538C1.18696 6.4 0.776078 6.23143 0.473135 5.93137C0.170192 5.63131 0 5.22435 0 4.8V3.2C0 2.77565 0.170192 2.36869 0.473135 2.06863C0.776078 1.76857 1.18696 1.6 1.61538 1.6H7.26923C7.26923 1.17565 7.43942 0.768687 7.74237 0.468629C8.04531 0.168571 8.45619 0 8.88461 0L12.1154 0C12.5438 0 12.9547 0.168571 13.2576 0.468629C13.5606 0.768687 13.7308 1.17565 13.7308 1.6H19.3846C19.813 1.6 20.2239 1.76857 20.5269 2.06863C20.8298 2.36869 21 2.77565 21 3.2V4.8ZM4.22908 6.4L4.03846 6.4944V20.8C4.03846 21.2243 4.20865 21.6313 4.5116 21.9314C4.81454 22.2314 5.22542 22.4 5.65385 22.4H15.3462C15.7746 22.4 16.1855 22.2314 16.4884 21.9314C16.7913 21.6313 16.9615 21.2243 16.9615 20.8V6.4944L16.7709 6.4H4.22908ZM1.61538 4.8V3.2H19.3846V4.8H1.61538Z" fill="#EE3037"/>
</svg>
