<svg width="344" height="92" viewBox="0 0 344 92" fill="none" xmlns="http://www.w3.org/2000/svg">
<g opacity="0.45">
<path d="M23.2844 49.3891H7.79998C6.7022 49.3891 5.89331 48.1923 5.89331 46.7561C5.89331 45.2401 6.75998 44.123 7.79998 44.123H23.2844C24.3822 44.123 25.1911 45.3199 25.1911 46.7561C25.1911 48.1923 24.3244 49.3891 23.2844 49.3891Z" fill="#FAF0D7"/>
<path d="M23.2843 54.6549H7.2221C6.12432 54.6549 5.31543 53.4581 5.31543 52.0219C5.31543 50.5059 6.1821 49.3889 7.2221 49.3889H23.2843C24.3821 49.3889 25.191 50.5857 25.191 52.0219C25.191 53.4581 24.3243 54.6549 23.2843 54.6549Z" fill="#FAF0D7"/>
<path d="M23.2843 59.8412H7.2221C6.1821 59.8412 5.31543 58.7241 5.31543 57.2082V57.1284C5.31543 55.6922 6.12432 54.4954 7.2221 54.4954H23.2843C24.3243 54.4954 25.191 55.6124 25.191 57.1284V57.2082C25.191 58.7241 24.3243 59.8412 23.2843 59.8412Z" fill="#FAF0D7"/>
<path d="M23.2843 65.1871H7.2221C6.1821 65.1871 5.31543 64.0701 5.31543 62.5541V62.4743C5.31543 61.0381 6.12432 59.8413 7.2221 59.8413H23.2843C24.3243 59.8413 25.191 60.9583 25.191 62.4743V62.5541C25.191 63.9105 24.3243 65.1871 23.2843 65.1871Z" fill="#FAF0D7"/>
<path d="M23.2843 70.3735H7.2221C6.1821 70.3735 5.31543 69.2564 5.31543 67.7404C5.31543 66.3043 6.12432 65.1074 7.2221 65.1074H23.2843C24.3243 65.1074 25.191 66.2245 25.191 67.7404C25.191 69.1766 24.3243 70.3735 23.2843 70.3735Z" fill="#FAF0D7"/>
<path d="M23.2843 75.6393H7.2221C6.1821 75.6393 5.31543 74.5223 5.31543 73.0063C5.31543 71.5701 6.12432 70.3733 7.2221 70.3733H23.2843C24.3243 70.3733 25.191 71.4903 25.191 73.0063C25.191 74.4425 24.3243 75.6393 23.2843 75.6393Z" fill="#FAF0D7"/>
<path d="M14.2133 12.1279H19.5867C19.5867 12.1279 23.8044 13.245 23.8044 18.9099C23.8044 24.5749 19.6444 25.9313 19.6444 25.9313V34.5485L23.2844 44.1231H8.26221L11.2089 36.3038V24.8941C11.2089 24.8941 8.5511 23.1387 8.5511 18.8302C8.5511 13.5641 11.2667 12.1279 14.2133 12.1279Z" fill="#FAF0D7"/>
<path d="M12.7111 30.6387L14.8489 36.3036C14.8489 36.3036 15.3689 40.2931 12.7111 40.4526C10.0533 40.6122 10.3422 36.8622 10.3422 36.8622L12.7111 30.6387Z" fill="white"/>
<path d="M15.8311 8.45752H13.52V12.048H15.8311V8.45752Z" fill="#FAF0D7"/>
<path d="M20.1066 86.5704H9.30212C7.45323 86.5704 6.00879 84.5757 6.00879 82.0225V75.6394H23.5155V82.0225C23.3999 84.5757 21.9555 86.5704 20.1066 86.5704Z" fill="#FAF0D7"/>
<path d="M12.48 8.45743H16.6978V4.78717C16.6978 2.79246 15.5422 1.19669 14.0978 1.19669H12.48C12.48 1.1169 12.48 8.45743 12.48 8.45743Z" fill="#FAF0D7"/>
<path d="M16.6401 9.5746H8.95562C8.4934 9.5746 8.14673 9.01609 8.14673 8.45757V3.59048C8.14673 1.67556 9.30228 0 10.7467 0H14.849C16.2934 0 17.449 1.67556 17.449 3.59048V8.45757C17.5067 9.09587 17.1023 9.5746 16.6401 9.5746ZM9.70673 7.42032H15.8312V3.67027C15.8312 2.87238 15.369 2.23407 14.7912 2.23407H10.689C10.1112 2.23407 9.64895 2.87238 9.64895 3.67027V7.42032H9.70673Z" fill="#ED1B2F"/>
<path d="M15.7733 13.2449H9.53325C9.07103 13.2449 8.72437 12.6864 8.72437 12.1279V8.45761C8.72437 7.81931 9.12881 7.34058 9.53325 7.34058H15.7733C16.2355 7.34058 16.5821 7.89909 16.5821 8.45761V12.1279C16.5821 12.7662 16.2355 13.2449 15.7733 13.2449ZM10.3421 11.0108H14.9644V9.57465H10.3421V11.0108Z" fill="#ED1B2F"/>
<path d="M2.65772 44.841C2.54217 44.841 2.42661 44.841 2.25328 44.6815C1.84884 44.4421 1.73328 43.724 1.90661 43.1655L5.14217 35.0271V25.8514C5.14217 25.2131 5.54661 24.7344 5.95106 24.7344C6.3555 24.7344 6.75995 25.2929 6.75995 25.8514V35.2664C6.75995 35.426 6.70217 35.5856 6.64439 35.825L3.35106 44.2825C3.2355 44.6017 2.94661 44.841 2.65772 44.841Z" fill="#ED1B2F"/>
<path d="M22.9377 44.7612C22.7066 44.7612 22.3599 44.6016 22.2443 44.1229L18.951 35.6653C18.8932 35.5058 18.8354 35.3462 18.8354 35.1068V25.7716C18.8354 25.5322 18.8932 25.1333 19.0666 24.9737C19.2399 24.8141 19.471 24.6545 19.6443 24.6545C20.1066 24.6545 20.4532 25.2131 20.4532 25.7716C20.4532 25.8514 20.4532 25.9312 20.4532 25.9312V34.7877L23.6888 42.9261C23.8621 43.4846 23.7466 44.1229 23.3421 44.4421C23.2266 44.7612 23.111 44.7612 22.9377 44.7612Z" fill="#ED1B2F"/>
<path d="M23.2844 76.7565H2.71556C1.21333 76.7565 0 75.0809 0 73.0064C0 70.9319 1.21333 69.2563 2.71556 69.2563H23.2844C24.7867 69.2563 26 70.9319 26 73.0064C26 75.0809 24.7289 76.7565 23.2844 76.7565ZM2.65778 71.4106C2.02222 71.4106 1.56 72.1287 1.56 72.9266C1.56 73.8043 2.08 74.5224 2.65778 74.5224H23.2267C23.8622 74.5224 24.3822 73.8043 24.3822 73.0064C24.3822 72.2085 23.8622 71.4904 23.2267 71.4904L2.65778 71.4106Z" fill="#ED1B2F"/>
<path d="M23.2844 71.4903H2.71556C1.21333 71.4903 0 69.8148 0 67.7403C0 65.6658 1.21333 63.9902 2.71556 63.9902H23.2844C24.7867 63.9902 26 65.6658 26 67.7403C26 69.8148 24.7289 71.4903 23.2844 71.4903ZM2.65778 66.2243C2.02222 66.2243 1.56 66.9424 1.56 67.7403C1.56 68.618 2.08 69.3361 2.65778 69.3361H23.2267C23.8622 69.3361 24.3822 68.618 24.3822 67.8201C24.3822 67.0222 23.8622 66.3041 23.2267 66.3041L2.65778 66.2243Z" fill="#ED1B2F"/>
<path d="M23.2844 66.2245H2.71556C1.21333 66.2245 0 64.5489 0 62.4744C0 60.3999 1.21333 58.7244 2.71556 58.7244H23.2844C24.7867 58.7244 26 60.3999 26 62.4744C26 64.5489 24.7289 66.2245 23.2844 66.2245ZM2.65778 60.9584C2.02222 60.9584 1.56 61.6765 1.56 62.4744C1.56 63.3521 2.08 64.0702 2.65778 64.0702H23.2267C23.8622 64.0702 24.3822 63.3521 24.3822 62.5542C24.3822 61.7563 23.8622 61.0382 23.2267 61.0382L2.65778 60.9584Z" fill="#ED1B2F"/>
<path d="M23.2844 61.0382H2.71556C1.21333 61.0382 0 59.3626 0 57.2881C0 55.2136 1.21333 53.5381 2.71556 53.5381H23.2844C24.7867 53.5381 26 55.2136 26 57.2881C26 59.3626 24.7289 61.0382 23.2844 61.0382ZM2.65778 55.6924C2.02222 55.6924 1.56 56.4105 1.56 57.2083C1.56 58.086 2.08 58.8041 2.65778 58.8041H23.2267C23.8622 58.8041 24.3822 58.086 24.3822 57.2881C24.3822 56.4903 23.8622 55.7722 23.2267 55.7722L2.65778 55.6924Z" fill="#ED1B2F"/>
<path d="M23.2844 55.7721H2.71556C1.21333 55.7721 0 54.0965 0 52.022C0 49.9475 1.21333 48.272 2.71556 48.272H23.2844C24.7867 48.272 26 49.9475 26 52.022C25.9422 54.0965 24.7289 55.7721 23.2844 55.7721ZM2.65778 50.506C2.02222 50.506 1.56 51.2241 1.56 52.1018C1.56 52.9795 2.08 53.6178 2.65778 53.6178H23.2267C23.8622 53.6178 24.3822 52.8997 24.3822 52.1018C24.3822 51.2241 23.8622 50.5858 23.2267 50.5858L2.65778 50.506Z" fill="#ED1B2F"/>
<path d="M23.2844 50.5858H2.71556C1.21333 50.5858 0 48.9102 0 46.8357C0 44.7612 1.21333 43.0857 2.71556 43.0857H23.2844C24.7867 43.0857 26 44.7612 26 46.8357C26 48.9102 24.7289 50.5858 23.2844 50.5858ZM2.65778 45.1602C2.02222 45.1602 1.56 45.8783 1.56 46.756C1.56 47.6336 2.08 48.2719 2.65778 48.2719H23.2267C23.8622 48.2719 24.3822 47.5538 24.3822 46.756C24.3822 45.9581 23.8622 45.24 23.2267 45.24L2.65778 45.1602Z" fill="#ED1B2F"/>
<path d="M5.83567 26.6493C5.77789 26.6493 5.7779 26.6493 5.72012 26.6493C3.00456 26.011 0.924561 22.8195 0.924561 18.9098C0.924561 14.6013 3.46678 11.0906 6.58679 11.0906H18.8935C22.0135 11.0906 24.5557 14.6013 24.5557 18.9098C24.5557 22.6599 22.5912 25.9312 19.8179 26.6493C19.3557 26.7291 19.009 26.4099 18.8357 25.7716C18.7779 25.1333 19.009 24.6546 19.4712 24.4152C21.4357 23.9365 22.8223 21.6226 22.8223 18.9098C22.8223 15.7981 20.9735 13.2449 18.7201 13.2449H6.64456C4.39123 13.2449 2.54234 15.7981 2.54234 18.9098C2.54234 21.7024 3.98678 24.0163 5.95123 24.4152C6.41345 24.495 6.70234 25.1333 6.58679 25.6121C6.52901 26.3302 6.24012 26.6493 5.83567 26.6493Z" fill="#ED1B2F"/>
<path d="M17.0444 26.8886H16.0044C15.5422 26.8886 15.1956 26.3301 15.1956 25.7716C15.1956 25.2131 15.6 24.6545 16.0044 24.6545H17.0444C17.5067 24.6545 17.8533 25.2131 17.8533 25.7716C17.8533 26.4099 17.5067 26.8886 17.0444 26.8886Z" fill="#ED1B2F"/>
<path d="M13.751 26.8886H12.711C12.2488 26.8886 11.9021 26.3301 11.9021 25.7716C11.9021 25.2131 12.3065 24.6545 12.711 24.6545H13.751C14.2132 24.6545 14.5599 25.2131 14.5599 25.7716C14.5599 26.3301 14.1554 26.8886 13.751 26.8886Z" fill="#ED1B2F"/>
<path d="M10.3422 26.8886H9.0711C8.60887 26.8886 8.26221 26.3301 8.26221 25.7716C8.26221 25.2131 8.66665 24.6545 9.0711 24.6545H10.3422C10.8044 24.6545 11.1511 25.2131 11.1511 25.7716C11.1511 26.3301 10.8044 26.8886 10.3422 26.8886Z" fill="#ED1B2F"/>
<path d="M19.1822 87.9268H6.47109C3.75553 87.9268 1.5022 84.815 1.5022 81.065V75.7989C1.5022 75.1606 1.90664 74.6819 2.31109 74.6819H23.4577C23.92 74.6819 24.2666 75.2404 24.2666 75.7989V81.065C24.2089 84.815 21.9555 87.9268 19.1822 87.9268ZM3.11998 76.8362V81.065C3.11998 83.6182 4.6222 85.6927 6.47109 85.6927H19.1822C21.0311 85.6927 22.5333 83.6182 22.5333 81.065V76.8362H3.11998Z" fill="#ED1B2F"/>
<path d="M15.0222 37.1016C15.0222 38.857 13.9822 40.373 12.6533 40.373C11.3822 40.373 10.2844 38.9368 10.2844 37.1016C10.2844 35.3463 12.6533 30.3994 12.6533 30.3994C12.6533 30.3994 15.0222 35.3463 15.0222 37.1016Z" fill="#ED1B2F"/>
</g>
<g opacity="0.45">
<path d="M90.7235 83.8824L91.542 90.3817H52.5603L53.4811 83.8824V16.5333L52.5603 8.32788H91.542L90.7235 16.5333V83.8824Z" fill="#F9EFD7"/>
<path d="M58.8016 90.3818C58.8016 90.3818 52.0488 90.9505 52.6627 88.5945C53.2766 86.2385 53.6858 61.2974 53.6858 49.4361C53.6858 37.5749 53.6858 15.4772 53.6858 15.4772C53.6858 15.4772 51.6396 8.49048 52.6627 8.49048C53.6858 8.49048 77.6274 8.49048 77.6274 8.49048C77.6274 8.49048 73.2279 14.6648 64.4288 19.3768C57.5738 23.1139 60.0293 44.8054 60.234 63.0035C60.6432 83.9637 58.8016 90.3818 58.8016 90.3818Z" fill="white"/>
<path d="M89.5981 84.2075H54.5043C53.1742 84.2075 52.2534 83.3138 52.2534 82.4202V16.5334C52.2534 15.4773 53.3789 14.7461 54.5043 14.7461H89.7004C91.0305 14.7461 91.9514 15.6397 91.9514 16.5334V82.3389C91.9514 83.3138 90.9282 84.2075 89.5981 84.2075ZM55.0159 82.014H89.2912V16.9396H55.0159V82.014Z" fill="#EB1E30"/>
<path d="M89.5981 16.9396H54.5043C53.2765 16.9396 52.2533 16.2084 52.0487 15.2335L51.0256 9.38413C50.9233 8.81544 51.1279 8.24675 51.6395 7.84055C52.0487 7.3531 52.7649 7.10938 53.4811 7.10938H90.4166C91.1328 7.10938 91.849 7.3531 92.2582 7.84055C92.6675 8.328 92.9744 8.81544 92.8721 9.38413L91.9513 15.2335C91.849 16.2084 90.9281 16.9396 89.5981 16.9396ZM54.7089 14.6648H89.2911L90.1096 9.38413H53.9927L54.7089 14.6648Z" fill="#EB1E30"/>
<path d="M90.6211 91.4379H53.481C52.7648 91.4379 52.0486 91.1941 51.6393 90.7067C51.2301 90.2192 50.9231 89.7318 51.0254 89.1631L51.9463 83.6387C52.0486 82.6638 53.174 81.9326 54.4018 81.9326H89.5979C90.8257 81.9326 91.8488 82.6638 92.0535 83.6387L92.9743 89.1631C93.0766 89.7318 92.872 90.3005 92.3604 90.7067C91.8488 91.1941 91.2349 91.4379 90.6211 91.4379ZM53.9926 89.2443H90.3141L89.4956 84.1261H54.7088L53.9926 89.2443Z" fill="#EB1E30"/>
<path d="M65.4519 72.0213C65.145 72.0213 64.838 71.9401 64.6334 71.8588C63.9172 71.5339 63.8149 70.8027 64.3264 70.3153C64.3264 70.234 65.4519 69.0154 65.4519 66.3344C65.4519 65.1971 65.145 64.7908 64.5311 64.2222C63.8149 63.4097 62.9964 62.5161 62.9964 60.2413C62.9964 58.779 63.6102 58.0478 64.0195 57.3979C64.4288 56.7479 64.9403 56.1793 64.9403 54.2295C64.9403 53.3358 64.6334 52.9296 64.1218 52.2797C63.5079 51.4673 62.894 50.5736 62.894 48.705C62.894 47.7302 63.5079 46.674 64.0195 45.6991C64.4288 44.8867 64.9403 44.1555 64.9403 43.5868C64.9403 42.0433 64.5311 41.3121 64.0195 40.4997C63.6102 39.606 62.9964 38.7124 62.9964 36.8438C62.9964 35.1377 64.0195 33.9191 64.6334 33.1879C65.0426 32.6192 65.4519 32.2943 65.4519 31.9693C65.4519 29.3696 64.3264 27.9885 64.3264 27.9885C63.9172 27.4198 64.1218 26.7699 64.7357 26.5261C65.4519 26.2012 66.2704 26.3637 66.5774 26.7699C66.6797 26.8511 68.1121 28.7197 68.1121 32.0506C68.1121 33.1067 67.3959 33.8379 66.8843 34.4878C66.1681 35.219 65.6565 35.8689 65.6565 36.925C65.6565 38.3061 65.9635 38.9561 66.475 39.7685C67.0889 40.6621 67.6005 41.7183 67.6005 43.6681C67.6005 44.643 66.9866 45.6991 66.475 46.674C66.0658 47.4864 65.5542 48.2176 65.5542 48.7863C65.5542 50.0862 65.9635 50.5736 66.475 51.3048C67.0889 52.0359 67.6005 52.8484 67.6005 54.3107C67.6005 56.7479 66.8843 57.8041 66.3727 58.5353C66.0658 59.104 65.6565 59.4289 65.6565 60.2413C65.6565 61.7849 66.0658 62.3536 66.6797 63.0035C67.3959 63.7347 68.1121 64.5471 68.1121 66.4969C68.1121 69.9903 66.6797 71.6964 66.475 71.8588C66.3727 71.8588 65.8612 72.0213 65.4519 72.0213Z" fill="#EC1E31"/>
<path d="M71.6931 72.0213C71.3862 72.0213 71.0792 71.9401 70.8746 71.8588C70.1584 71.5339 70.0561 70.8027 70.5677 70.3153C70.5677 70.234 71.6931 69.0154 71.6931 66.3344C71.6931 65.1971 71.3862 64.7908 70.7723 64.2222C70.0561 63.4097 69.2376 62.5161 69.2376 60.2413C69.2376 58.779 69.8515 58.0478 70.2607 57.3979C70.67 56.7479 71.1815 56.1793 71.1815 54.2295C71.1815 53.3358 70.8746 52.9296 70.363 52.2797C69.7491 51.4673 69.1353 50.5736 69.1353 48.705C69.1353 47.7302 69.7491 46.674 70.2607 45.6991C70.67 44.8867 71.1815 44.1555 71.1815 43.5868C71.1815 42.0433 70.7723 41.3121 70.2607 40.4997C69.8515 39.606 69.2376 38.7124 69.2376 36.8438C69.2376 35.1377 70.2607 33.9191 70.8746 33.1879C71.2839 32.6192 71.6931 32.2943 71.6931 31.9693C71.6931 29.3696 70.5677 27.9885 70.5677 27.9885C70.1584 27.4198 70.363 26.7699 70.9769 26.5261C71.6931 26.2012 72.5116 26.3637 72.8186 26.7699C72.9209 26.8511 74.3533 28.7197 74.3533 32.0506C74.3533 33.1067 73.6371 33.8379 73.1255 34.4878C72.4093 35.219 71.8977 35.8689 71.8977 36.925C71.8977 38.3061 72.2047 38.9561 72.7163 39.7685C73.3301 40.6621 73.8417 41.7183 73.8417 43.6681C73.8417 44.643 73.2278 45.6991 72.7163 46.674C72.307 47.4864 71.7954 48.2176 71.7954 48.7863C71.7954 50.0862 72.2047 50.5736 72.7163 51.3048C73.3301 52.0359 73.8417 52.8484 73.8417 54.3107C73.8417 56.7479 73.1255 57.8041 72.6139 58.5353C72.307 59.104 71.8977 59.4289 71.8977 60.2413C71.8977 61.7849 72.307 62.3536 72.9209 63.0035C73.6371 63.7347 74.3533 64.5471 74.3533 66.4969C74.3533 69.9903 72.9209 71.6964 72.7163 71.8588C72.6139 71.8588 72.2047 72.0213 71.6931 72.0213Z" fill="#EC1E31"/>
<path d="M77.4226 72.0213C77.1157 72.0213 76.8087 71.9401 76.6041 71.8588C75.8879 71.5339 75.7856 70.8027 76.2971 70.3153C76.2971 70.234 77.4226 69.0154 77.4226 66.3344C77.4226 65.1971 77.1157 64.7908 76.5018 64.2222C75.7856 63.4097 74.9671 62.5161 74.9671 60.2413C74.9671 58.779 75.5809 58.0478 75.9902 57.3979C76.3995 56.7479 76.911 56.1793 76.911 54.2295C76.911 53.3358 76.6041 52.9296 76.0925 52.2797C75.4786 51.4673 74.8647 50.5736 74.8647 48.705C74.8647 47.7302 75.4786 46.674 75.9902 45.6991C76.3995 44.8867 76.911 44.1555 76.911 43.5868C76.911 42.0433 76.5018 41.3121 75.9902 40.4997C75.5809 39.606 74.9671 38.7124 74.9671 36.8438C74.9671 35.1377 75.9902 33.9191 76.6041 33.1879C77.0133 32.6192 77.4226 32.2943 77.4226 31.9693C77.4226 29.3696 76.2971 27.9885 76.2971 27.9885C75.8879 27.4198 76.0925 26.7699 76.7064 26.5261C77.4226 26.2012 78.2411 26.3637 78.5481 26.7699C78.6504 26.8511 80.0828 28.7197 80.0828 32.0506C80.0828 33.1067 79.3666 33.8379 78.855 34.4878C78.1388 35.219 77.6272 35.8689 77.6272 36.925C77.6272 38.3061 77.9342 38.9561 78.4457 39.7685C79.0596 40.6621 79.5712 41.7183 79.5712 43.6681C79.5712 44.643 78.9573 45.6991 78.4457 46.674C78.0365 47.4864 77.5249 48.2176 77.5249 48.7863C77.5249 50.0862 77.9342 50.5736 78.4457 51.3048C79.0596 52.0359 79.5712 52.8484 79.5712 54.3107C79.5712 56.7479 78.855 57.8041 78.3434 58.5353C78.0365 59.104 77.6272 59.4289 77.6272 60.2413C77.6272 61.7849 78.0365 62.3536 78.6504 63.0035C79.3666 63.7347 80.0828 64.5471 80.0828 66.4969C80.0828 69.9903 78.6504 71.6964 78.4457 71.8588C78.3434 71.8588 77.9342 72.0213 77.4226 72.0213Z" fill="#EC1E31"/>
<path d="M78.0366 76.4083H65.3496C61.8709 76.4083 59.0061 74.2148 59.0061 71.3713V26.2823C59.0061 23.5201 61.7686 21.2454 65.3496 21.2454H78.0366C81.5152 21.2454 84.38 23.4389 84.38 26.2823V71.4525C84.2777 74.1335 81.4129 76.4083 78.0366 76.4083ZM65.3496 23.6014C63.5079 23.6014 61.8709 24.82 61.8709 26.3636V71.5338C61.8709 72.9961 63.4056 74.296 65.3496 74.296H78.0366C79.8782 74.296 81.5152 73.0774 81.5152 71.5338V26.2823C81.5152 24.82 79.9805 23.5201 78.0366 23.5201C78.0366 23.6014 65.3496 23.6014 65.3496 23.6014Z" fill="#EC1E31"/>
</g>
<g opacity="0.45">
<path d="M172.309 84.5767H115.157C114.105 84.5767 113.295 83.0926 113.295 81.4735C113.295 80.5291 113.781 79.8545 114.267 79.8545H173.443C174.009 79.8545 174.414 80.664 174.414 81.4735C174.171 83.0926 173.362 84.5767 172.309 84.5767Z" fill="#FAF0D7"/>
<path d="M173.038 32.3625H115.157V79.7197H173.038V32.3625Z" fill="#FAF0D7"/>
<path d="M114.51 74.188C114.51 74.188 117.748 73.9182 119.69 65.4182C121.633 56.9182 121.795 50.1722 126.086 46.7991C130.457 43.4261 137.986 43.2912 141.386 39.6484C144.786 36.0055 147.052 32.4976 147.052 32.4976H115.157L114.51 74.188Z" fill="white"/>
<path d="M115.724 32.3625H113.376V79.5848H115.724V32.3625Z" fill="#ED1B2F"/>
<path d="M174.171 32.3625H171.824V79.5848H174.171V32.3625Z" fill="#ED1B2F"/>
<path d="M172.714 34.791H114.752C113.214 34.791 112 32.7672 112 30.2037V28.9894C112 26.4259 113.214 24.4021 114.752 24.4021H172.633C174.171 24.4021 175.386 26.4259 175.386 28.9894V30.2037C175.467 32.7672 174.171 34.791 172.714 34.791ZM114.752 28.4497C114.59 28.4497 114.348 28.7196 114.348 29.1243V30.3386C114.348 30.6085 114.51 31.0132 114.752 31.0132H172.633C172.795 31.0132 173.038 30.7434 173.038 30.3386V29.1243C173.038 28.8545 172.876 28.4497 172.633 28.4497H114.752Z" fill="#ED1B2F"/>
<path d="M172.714 87.2751H114.752C113.214 87.2751 112 85.2513 112 82.6878V81.4735C112 78.91 113.214 76.8862 114.752 76.8862H172.633C174.171 76.8862 175.386 78.91 175.386 81.4735V82.6878C175.467 85.1164 174.171 87.2751 172.714 87.2751ZM114.752 80.7989C114.59 80.7989 114.348 81.0688 114.348 81.4735V82.6878C114.348 82.9577 114.51 83.3624 114.752 83.3624H172.633C172.795 83.3624 173.038 83.0926 173.038 82.6878V81.4735C173.038 81.2037 172.876 80.7989 172.633 80.7989H114.752Z" fill="#ED1B2F"/>
<path d="M172.876 48.6878C140.576 39.5132 115.076 48.5529 114.752 48.6878L114.267 44.7751C114.59 44.6402 140.576 35.4656 173.362 44.7751L172.876 48.6878Z" fill="#ED1B2F"/>
<path d="M143.329 71.4896C125.924 71.4896 114.348 67.442 114.186 67.442L114.672 63.5293C114.995 63.6642 140.495 72.7039 172.795 63.5293L173.2 67.442C162.352 70.4103 152.152 71.4896 143.329 71.4896Z" fill="#ED1B2F"/>
<path d="M152.881 58.9419H150.452C149.805 58.9419 149.238 57.9975 149.238 56.9181C149.238 55.8387 149.805 54.8943 150.452 54.8943H152.881C153.529 54.8943 154.095 55.8387 154.095 56.9181C154.095 57.9975 153.609 58.9419 152.881 58.9419Z" fill="#ED1B2F"/>
<path d="M145.271 58.9419H142.843C142.195 58.9419 141.628 57.9975 141.628 56.9181C141.628 55.8387 142.195 54.8943 142.843 54.8943H145.271C145.919 54.8943 146.486 55.8387 146.486 56.9181C146.405 57.9975 145.919 58.9419 145.271 58.9419Z" fill="#ED1B2F"/>
<path d="M137.176 58.9419H134.181C133.533 58.9419 132.967 57.9975 132.967 56.9181C132.967 55.8387 133.533 54.8943 134.181 54.8943H137.176C137.824 54.8943 138.39 55.8387 138.39 56.9181C138.471 57.9975 137.905 58.9419 137.176 58.9419Z" fill="#ED1B2F"/>
<path d="M162.271 27.5054C161.786 27.5054 161.3 26.9657 161.138 26.2911C161.057 26.0212 161.057 25.6165 161.057 25.3466C160.571 25.8863 160.086 26.426 159.6 27.1006C159.114 27.9101 158.386 27.7752 157.981 26.9657C157.576 26.1562 157.657 24.9419 158.143 24.1324C161.948 19.1403 165.752 16.4419 167.695 17.2514C168.343 17.5212 168.828 18.0609 168.99 19.0054C169.152 19.68 169.152 20.4895 168.99 21.0292C168.424 23.1879 165.186 25.8863 162.595 27.6403C162.595 27.5054 162.352 27.5054 162.271 27.5054Z" fill="#ED1B2F"/>
</g>
<g opacity="0.5">
<path d="M235.957 27.3381C231.826 21.8416 231.927 17.1908 231.927 17.1908L232.33 14.8231L233.237 3.9992H230.618V0.109375H214.499V3.9992H211.879L213.39 14.8231C213.39 14.8231 212.786 18.3746 211.879 22.1799C211.174 25.9851 205.835 42.6437 203.719 50.7616C201.503 58.8795 202.913 71.9865 203.719 79.1742C204.525 86.362 209.965 86.1083 209.965 86.1083H245.125C245.125 86.1083 247.945 85.5163 249.86 83.9942C251.774 82.5567 252.277 74.1006 253.083 61.0781C253.889 47.9711 240.188 32.7501 235.957 27.3381ZM244.52 55.1588C243.009 55.7507 239.886 50.0851 234.647 43.6585C229.409 37.3164 229.409 37.2318 229.409 37.2318C229.409 37.2318 228.502 34.7795 230.819 33.8493C233.136 33.0037 236.058 35.0332 239.181 38.5002C242.304 41.9672 246.031 54.5669 244.52 55.1588Z" fill="#FAF0D7"/>
</g>
<path opacity="0.45" fill-rule="evenodd" clip-rule="evenodd" d="M229.112 6.20004L229.101 6.2H212.855L212.844 6.20004L212.832 6.2H211.632L212.44 14.5129H229.617L230.324 6.2H229.125L229.112 6.20004ZM230.628 1.26166V4.06004H231.739C232.042 4.06004 232.446 4.14234 232.648 4.38926C232.851 4.63618 233.053 4.8831 232.952 5.13002L232.143 15.6652C232.143 15.8079 232.106 15.9406 232.039 16.0593C232.176 18.2452 232.555 21.5315 233.019 22.591C234.315 25.0967 236.194 27.4967 238.188 30.0449L238.188 30.045L238.188 30.0451C238.684 30.6776 239.186 31.3193 239.688 31.9739L240.047 32.428C244.508 38.0774 249.556 44.4681 252.016 53.0443C254.542 61.8511 252.319 74.6086 250.702 81.3577C250.096 83.9915 247.165 85.9668 243.73 85.9668H208.668C205.334 85.9668 202.303 83.9915 201.696 81.2754C200.686 76.7485 199.069 67.0364 200.686 53.6205C201.434 47.0712 207.372 30.0231 208.656 26.3377C208.759 26.0399 208.833 25.8294 208.87 25.7187L210.754 16.5877C210.264 16.4472 209.89 16.0876 209.813 15.5829L209.004 5.13002C209.004 4.8831 209.105 4.55387 209.308 4.38926C209.51 4.14234 209.914 4.06004 210.217 4.06004H211.429V1.26166C211.429 0.685518 212.036 0.109375 212.844 0.109375H229.213C229.92 0.109375 230.628 0.603212 230.628 1.26166ZM227.697 4.06004H214.259V2.33164H227.697V4.06004ZM229.389 16.6529H213.352L211.396 26.2125V26.2948C211.295 26.4594 204.121 46.9537 203.313 53.8674C201.797 67.0364 203.313 76.4193 204.323 80.9462C204.728 82.6746 206.546 83.8269 208.668 83.8269H243.932C246.054 83.8269 247.974 82.5923 248.277 80.9462C249.793 74.3617 252.016 62.098 249.59 53.5382C247.141 45.3191 242.318 39.1115 238.067 33.6402L237.667 33.1262C237.311 32.6683 236.956 32.2164 236.605 31.7692C234.37 28.9206 232.281 26.2596 230.797 23.4141C229.94 22.018 229.563 18.4691 229.389 16.6529ZM241.204 55.9251H241.507C242.619 55.9251 243.326 55.5958 243.831 55.0197C244.437 54.4435 244.639 53.5382 244.437 52.7974L242.72 46.7891C241.81 43.9907 240.497 41.4392 238.577 39.1346L235.04 34.8547C234.232 33.867 233.02 33.2908 231.504 33.1262C229.988 33.0439 228.473 33.4554 227.462 34.2785C225.643 35.6777 225.542 38.0646 227.159 39.7107L231.807 44.4022C232.817 45.4722 233.828 46.6245 234.535 47.859L238.678 54.4435C239.183 55.3489 240.194 55.8428 241.204 55.9251ZM241.911 53.6205C241.81 53.7028 241.709 53.7851 241.507 53.7851C241.45 53.7851 241.362 53.7332 241.259 53.6731C241.179 53.6262 241.09 53.5743 241.002 53.5382L236.859 46.9537C236.051 45.6368 235.04 44.4022 233.929 43.1676L229.281 38.4761C228.574 37.6531 228.574 36.5008 229.382 35.9246C229.887 35.5131 230.696 35.3485 231.302 35.4308C232.11 35.4308 232.615 35.76 233.019 36.1716L236.556 40.4515C238.375 42.5091 239.587 44.8137 240.295 47.2829L242.012 53.2913C242.012 53.3877 241.978 53.4559 241.949 53.5124C241.929 53.5523 241.911 53.5864 241.911 53.6205ZM207.287 79.1234C208.701 81.1811 210.318 81.5926 211.632 81.5926H236.791C236.993 81.5926 238.812 81.428 240.328 79.9465C241.944 78.465 242.349 76.1604 241.843 73.0328C240.732 66.6129 233.053 52.95 229.213 47.1063C228.304 45.6248 226.283 43.4025 226.182 43.3202C223.656 40.6864 221.231 39.4518 218.806 39.5341C216.684 39.6164 214.663 40.851 212.743 43.0733C209.207 47.5178 206.478 54.4315 205.468 62.1683C204.559 69.4113 205.165 75.9135 207.287 79.1234ZM215.067 44.2256C216.381 42.4971 217.694 41.6741 219.21 41.6741C220.725 41.6741 222.544 42.7441 224.161 44.6371C224.161 44.6371 226.182 46.7771 226.99 48.094C230.628 53.6908 238.307 67.2713 239.418 73.362C239.924 75.8312 239.519 77.5596 238.61 78.6296C237.933 79.25 237.185 79.4085 237.019 79.4437C236.987 79.4505 236.977 79.4527 236.993 79.4527H211.632C210.924 79.4527 210.217 78.9588 209.611 78.0535C205.67 72.0451 207.893 52.7854 215.067 44.2256Z" fill="#ED1B2F"/>
<g opacity="0.45">
<path d="M338.068 46.9405L343.128 46.2177L342.743 83.3202L337.7 82.3875L285.35 81.8047L278.963 82.6101L279.347 45.5076L285.717 46.3577L338.068 46.9405Z" fill="#F9EFD7"/>
<path d="M342.805 77.38C342.805 77.38 343.18 83.8121 341.355 83.2074C339.53 82.6028 320.147 81.9974 310.927 81.8947C301.707 81.7921 284.531 81.6008 284.531 81.6008C284.531 81.6008 279.08 83.488 279.09 82.5142C279.1 81.5404 279.336 58.753 279.336 58.753C279.336 58.753 284.092 62.9939 287.668 71.4095C290.505 77.9664 307.39 75.817 321.538 75.7797C337.834 75.5716 342.805 77.38 342.805 77.38Z" fill="white"/>
<path d="M338.309 48.0145L337.963 81.4165C337.95 82.6825 337.246 83.5512 336.552 83.5434L285.338 82.9732C284.517 82.9641 283.959 81.8866 283.971 80.8154L284.318 47.316C284.331 46.05 285.035 45.1813 285.729 45.1891L336.88 45.7586C337.638 45.767 338.322 46.7486 338.309 48.0145ZM336.263 80.9106L336.601 48.2877L286.019 47.7245L285.681 80.3474L336.263 80.9106Z" fill="#EB1E30"/>
<path d="M286.022 47.4325L285.676 80.8345C285.664 82.003 285.085 82.9705 284.325 83.1569L279.768 84.0801C279.325 84.1725 278.885 83.9728 278.575 83.4824C278.2 83.0887 278.017 82.4049 278.024 81.7232L278.389 46.5684C278.396 45.8867 278.592 45.2071 278.975 44.8218C279.358 44.4365 279.74 44.1486 280.181 44.2509L284.719 45.1779C285.476 45.2838 286.035 46.1665 286.022 47.4325ZM283.909 80.62L284.251 47.7049L280.154 46.8802L279.798 81.256L283.909 80.62Z" fill="#EB1E30"/>
<path d="M343.94 47.1034L343.574 82.453C343.567 83.1347 343.37 83.8143 342.987 84.1996C342.604 84.5849 342.223 84.8728 341.781 84.7705L337.496 83.8463C336.74 83.7404 336.182 82.6629 336.195 81.4943L336.542 47.995C336.554 46.8264 337.132 45.8589 337.892 45.6726L342.195 44.8439C342.638 44.7515 343.078 44.9512 343.389 45.4416C343.763 45.9327 343.946 46.5191 343.94 47.1034ZM341.874 81.9471L342.232 47.3766L338.246 48.1113L337.903 81.2212L341.874 81.9471Z" fill="#EB1E30"/>
<path d="M332.133 58.9513L332.008 71.0266C331.973 74.3376 330.24 77.0453 328.03 77.0207L292.982 76.6305C290.835 76.6066 289.094 73.9576 289.129 70.5492L289.255 58.4739C289.289 55.1629 291.022 52.4552 293.232 52.4798L328.343 52.8707C330.426 52.9913 332.166 55.7377 332.133 58.9513ZM290.961 70.5696C290.943 72.3225 291.874 73.8912 293.074 73.9045L328.184 74.2954C329.321 74.3081 330.347 72.8586 330.366 71.0084L330.491 58.933C330.509 57.1801 329.578 55.6115 328.378 55.5981L293.204 55.2065C292.067 55.1938 291.042 56.6433 291.023 58.4936C291.086 58.4943 290.961 70.5696 290.961 70.5696Z" fill="#EC1E31"/>
</g>
<circle opacity="0.45" cx="301" cy="64.1096" r="4.5" stroke="#EB1E30"/>
<path opacity="0.45" d="M303.095 60.8062C304.568 61.5306 305.291 64.0354 304.26 65.3093C303.228 66.5831 301.931 66.2485 302.143 65.8972C302.354 65.5458 304.383 62.8618 300.979 61.3941C300.462 61.1713 301.622 60.0818 303.095 60.8062Z" fill="#ED1B2F"/>
<path opacity="0.45" d="M318.232 69.6298C317.611 67.2295 319.108 64.6988 321.619 64.0016C324.129 63.3045 326.646 64.7203 327.267 67.1206C327.887 69.5209 326.39 72.0516 323.88 72.7488C321.37 73.4459 318.852 72.0301 318.232 69.6298Z" stroke="#EB1E30"/>
<path opacity="0.45" d="M323.926 62.7411C323.615 61.5397 324.363 60.2587 325.64 59.9042C326.916 59.5497 328.182 60.2714 328.492 61.4728C328.803 62.6742 328.055 63.9552 326.778 64.3097C325.502 64.6642 324.236 63.9425 323.926 62.7411Z" stroke="#EB1E30"/>
<path opacity="0.45" d="M292.226 60.7296C291.915 59.5282 292.663 58.2472 293.94 57.8927C295.216 57.5382 296.482 58.2599 296.793 59.4613C297.103 60.6627 296.355 61.9438 295.079 62.2983C293.802 62.6527 292.537 61.931 292.226 60.7296Z" stroke="#EB1E30"/>
<path opacity="0.45" d="M321.205 71.7806C319.602 71.476 318.278 69.2505 318.956 67.7432C319.635 66.236 320.971 66.2114 320.854 66.6075C320.738 67.0036 319.448 70.1405 323.103 70.6449C323.658 70.7214 322.809 72.0852 321.205 71.7806Z" fill="#ED1B2F"/>
</svg>
